<?xml version="1.0" encoding="utf-8"?>
<!-- Generator: Adobe Illustrator 23.0.3, SVG Export Plug-In . SVG Version: 6.00 Build 0)  -->
<svg version="1.1" id="Layer_1" xmlns="http://www.w3.org/2000/svg" xmlns:xlink="http://www.w3.org/1999/xlink" x="0px" y="0px"
	 viewBox="0 0 1920 489" style="enable-background:new 0 0 1920 489;" xml:space="preserve">
<style type="text/css">
	.st0{display:none;fill:#C69C6D;stroke:#000000;stroke-miterlimit:10;}
</style>
<image style="display:none;overflow:visible;enable-background:new    ;" width="1920" height="1080" xlink:href="sweg logo.png"  transform="matrix(1 0 0 1 198 564)">
</image>
<g id="S">
	<path d="M322,108.7L349.2,61c0,0-134.4-119.1-284.2-13.6c49.4,28.9,49.4,28.9,49.4,28.9S238.6,28.7,322,108.7z"/>
	<path d="M32.6,84.9l61.3,32.3c0,0-47.7,74.9,112.3,102.1s160,102.1,160,102.1s20.4,40.8-17,108.9C296.4,398,296.4,398,296.4,398
		s47.7-85.1-93.6-115.7s-156.6-63-156.6-63S5.4,183.6,32.6,86.6"/>
	<path d="M30.9,369.1c0,0,85.1,85.1,221.2,56.2c63,39.1,63,39.1,63,39.1S151.8,542.7,2,420.1C30.9,369.1,30.9,369.1,30.9,369.1z"/>
</g>
<g id="W">
	<polygon points="386.6,10 453,10 640.2,488.2 582.3,488.2 	"/>
	<polygon points="611.3,10 667.4,10 880.2,488.2 825.7,488.2 732.1,268.7 665.7,423.5 639.5,354.5 704.9,209.1 	"/>
	<polygon points="758.5,99.5 784.5,157.5 850.5,10 799.5,10 	"/>
	<polygon points="1024.5,10 1076.5,10 895.5,406.5 870.5,350.5 	"/>
</g>
<g id="E">
	<polygon points="1138.8,10 1196.7,10 1201.8,428.7 1465.6,428.7 1465.6,486.5 1138.8,486.5 	"/>
	<rect x="1246.1" y="10" width="211" height="54.5"/>
	<rect x="1246.1" y="214.2" width="178.7" height="56.2"/>
</g>
<g id="G">
	<path d="M1862.1,142.7l46-32.3c0,0-63-117.4-178.7-105.5c-119.1,0-182.1,97-182.1,97s-93.6,141.3,0,285.9
		c93.6,144.7,238.3,90.2,238.3,90.2s108.9-39.1,134.4-137.9c-49.4,0-49.4,0-49.4,0s-37.4,103.8-158.3,90.2
		c-86.8-17-108.9-63-108.9-63s-81.7-107.2-1.7-240c51.1-78.3,125.9-68.1,125.9-68.1S1816.2,50.8,1862.1,142.7z"/>
	<rect x="1724.3" y="246.6" width="195.7" height="46"/>
</g>
<rect x="708.1" y="186.2" transform="matrix(0.4132 -0.9106 0.9106 0.4132 372.3921 996.7528)" class="st0" width="503" height="46.5"/>
</svg>
